<?xml version="1.0" encoding="utf-8"?>
<!-- Generator: Adobe Illustrator 26.0.0, SVG Export Plug-In . SVG Version: 6.00 Build 0)  -->
<svg version="1.1" id="Layer_1" xmlns="http://www.w3.org/2000/svg" xmlns:xlink="http://www.w3.org/1999/xlink" x="0px" y="0px"
	 viewBox="0 0 400 100" style="enable-background:new 0 0 400 100;" xml:space="preserve">
<style type="text/css">
	.st0{fill:#FFFFFF;}
	.st1{fill:#D1C32A;}
	.st2{fill:none;}
	.st3{font-family:'Butler';}
	.st4{font-size:77.0991px;}
</style>
<g>
	<g>
		<path class="st0" d="M258.9,73.6L254.5,96H253l4.4-22.4H258.9z"/>
		<path class="st0" d="M261.7,84.9c0.7-3.4,0.9-4.5,1-5.1h1.4c-0.1,0.6-0.3,1.8-0.5,2.8c0.8-1.5,2.2-3.1,4.9-3.1
			c2.5,0,4.5,1.8,3.7,6.2l-2,10.2h-1.5l2-10.1c0.5-2.5,0.1-4.8-2.5-4.8c-3.2,0-4.8,3-5.6,6.7L261,96h-1.4L261.7,84.9z"/>
		<path class="st0" d="M277,84.9c0.7-3.4,0.9-4.5,1-5.1h1.4c-0.1,0.6-0.3,1.8-0.5,2.8c0.8-1.5,2.2-3.1,4.9-3.1
			c2.5,0,4.5,1.8,3.7,6.2l-2,10.2h-1.5l2-10.1c0.5-2.5,0.1-4.8-2.5-4.8c-3.2,0-4.8,3-5.6,6.7l-1.6,8.2h-1.4L277,84.9z"/>
		<path class="st0" d="M315.2,82.5l-5.7,8.3c-2.8,4.1-4.2,5.5-7.3,5.5c-3.2,0-4.9-2.6-4.9-5.4c0-3.6,2.3-5.5,6.1-7.5
			c3-1.6,5.2-2.6,5.2-5.5c0-1.3-0.7-3.1-2.9-3.1c-1.9,0-3.1,1.5-3.1,4.2c0,1,0.4,2.4,1.6,4.3l9.1,12.8h-1.8l-8.6-12.1
			c-1-1.5-1.8-3.1-1.8-5c0-2.9,1.7-5.6,4.8-5.6c2.6,0,4.1,2,4.1,4.4c0,3.5-2.1,4.6-5.8,6.7c-3.2,1.8-5.4,3-5.4,6.3
			c0,2.1,1.1,4.1,3.5,4.1c2.7,0,4.2-1.9,6.2-5.1l4.9-7.2C313.5,82.5,315.2,82.5,315.2,82.5z"/>
		<path class="st0" d="M325.9,89.5c0.3,3.8,2.4,5.4,5.2,5.4c2.9,0,4.9-1.8,4.9-4.8c0-2.4-1.4-3.6-4.3-5.3c-3.1-1.7-4.5-2.9-4.5-5.8
			c0-3.3,2.2-5.6,5.8-5.6c4.2,0,5.9,2.9,5.8,6.2h-1.4c-0.1-3.3-1.9-4.8-4.6-4.8c-2.5,0-4.2,1.6-4.2,4.1c0,2.2,1.1,3,3.8,4.5
			c3.8,2.2,5.1,3.6,5.1,6.5c0,3.5-2.3,6.4-6.6,6.4c-4.7,0-6.2-3-6.5-6.8L325.9,89.5L325.9,89.5z"/>
		<path class="st0" d="M351.1,91.6c-0.4,1.8-0.7,3.7-0.8,4.4h-1.4c0.1-0.4,0.3-1.9,0.5-2.9c-0.8,1.6-2.4,3.2-4.9,3.2
			c-2,0-4.4-1.1-3.5-5.8l2.1-10.6h1.4l-2,10.2c-0.5,2.7-0.3,4.7,2.4,4.7c2.4,0,4.4-1.7,5.4-6.3l1.7-8.7h1.5L351.1,91.6z"/>
		<path class="st0" d="M358,79.9h1.4L356.2,96h-1.4L358,79.9z M359.5,72.5h1.4l-0.6,3.1h-1.4L359.5,72.5z"/>
		<path class="st0" d="M361.6,79.9h2.7l1-4.9h1.4l-1,4.9h3.3l-0.3,1.4h-3.3l-2.3,11.4c-0.3,1.5,0,2.2,1.3,2.2c0.9,0,1.5-0.2,1.8-0.3
			l-0.2,1.3c-0.5,0.3-1.4,0.4-1.9,0.4c-1.7,0-2.9-0.7-2.4-3.6l2.3-11.4h-2.7L361.6,79.9z"/>
		<path class="st0" d="M370.3,88.1c-0.1,0.7-0.2,1.4-0.2,2.2c0,2.8,1.1,4.6,3.6,4.6c2.9,0,3.8-2.2,4.4-3.4h1.4
			c-0.6,1.4-2,4.8-6.1,4.8c-3.4,0-4.8-2.6-4.8-5.9c0-4.8,2.4-10.8,7.4-10.8c3.3,0,4.6,2.5,4.6,5.5c0,1-0.2,2.1-0.4,3H370.3z
			 M379,86.8c0.1-0.5,0.1-0.9,0.1-1.6c0-2.6-1.1-4.2-3.5-4.2c-2.7,0-4.5,2.7-5.2,5.8H379z"/>
		<path class="st0" d="M383.4,91.2c0.1,2.3,1.2,3.8,3.7,3.8c2.2,0,3.5-1.4,3.5-3.3c0-1.5-0.7-2.4-3.1-3.6c-2.4-1.2-3.6-2-3.6-4.2
			c0-2.3,1.5-4.3,4.6-4.3c3.4,0,4.5,2.4,4.5,4.8h-1.4c-0.1-1.9-0.8-3.4-3.3-3.4c-1.8,0-2.9,1.2-2.9,2.8c0,1.3,0.6,1.9,2.7,2.9
			c2.4,1.2,4,2.3,4,4.8c0,2.6-1.6,4.9-5.2,4.9c-3.2,0-4.9-2-4.9-5.1L383.4,91.2L383.4,91.2z"/>
	</g>
</g>
<rect x="4" y="92.1" class="st1" width="68" height="3.9"/>
<g>
	<path class="st2" d="M-36,52.1h161.7H-36z"/>
	<path class="st1" d="M24,46.1v23.3c1.4-0.3,2.7-0.6,4-0.8V46.1H24z"/>
	<path class="st1" d="M24,88h4V73.1c-1.3,0.2-2.6,0.4-4,0.6V88z"/>
	<path class="st1" d="M48,88h4V73.7c-1.4-0.2-2.7-0.5-4-0.6V88z"/>
	<path class="st1" d="M48,46.1v22.5c1.3,0.2,2.6,0.5,4,0.8V46.1H48z"/>
	<path class="st1" d="M36,72.5V88h4V72.4c0,0-0.1,0-0.2,0C38.8,72.4,37.5,72.4,36,72.5z"/>
	<path class="st1" d="M36,17.9v49.8c1.5-0.1,2.8,0,3.8,0c0,0,0.1,0,0.2,0V17.9H36z"/>
	<polygon class="st1" points="38,4.4 36,17.9 40,17.9 	"/>
	<path class="st1" d="M12,29.6v43.8c1.4-0.6,2.7-1.1,4-1.6V29.6H12z"/>
	<path class="st1" d="M12,88h4V75.5c-1.3,0.4-2.6,0.8-4,1.2V88z"/>
	<polygon class="st1" points="14,16.1 12,29.6 16,29.6 	"/>
	<path class="st1" d="M60,88h4V76.8c-1.4-0.5-2.7-0.9-4-1.3V88z"/>
	<path class="st1" d="M60,29.6v42.2c1.3,0.5,2.6,1,4,1.6V29.6H60z"/>
	<polygon class="st1" points="62,16.1 60,29.6 64,29.6 	"/>
</g>
<text transform="matrix(1.051 0 0 1 80 58.4082)" class="st0 st3 st4">TEMPLE</text>
</svg>
