<?xml version="1.0" encoding="utf-8"?>
<!-- Generator: Adobe Illustrator 26.0.0, SVG Export Plug-In . SVG Version: 6.00 Build 0)  -->
<svg version="1.1" id="Layer_1" xmlns="http://www.w3.org/2000/svg" xmlns:xlink="http://www.w3.org/1999/xlink" x="0px" y="0px"
	 viewBox="0 0 400 100" style="enable-background:new 0 0 400 100;" xml:space="preserve">
<style type="text/css">
	.st0{font-family:'Butler';}
	.st1{font-size:82.4136px;}
	.st2{fill:none;}
	.st3{fill:#D1C32A;}
</style>
<g>
	<text transform="matrix(0.9975 0 0 1 75.9538 60.9321)" class="st0 st1">TEMPLE</text>
	<g>
		<g>
			<path d="M94.13,75.99l-4.44,20.94h-0.57l4.44-20.94H94.13z"/>
			<path d="M97.37,85.65c0.27-1.29,0.63-3.06,0.75-3.66h0.54c-0.12,0.72-0.39,2.13-0.72,3.54c0.87-1.77,2.4-3.84,5.67-3.84
				c2.34,0,4.56,1.41,3.66,5.61l-2.04,9.63h-0.57l2.04-9.72c0.63-2.97-0.39-5.01-3.18-5.01c-3.72,0-5.55,3.3-6.3,6.84l-1.65,7.89H95
				L97.37,85.65z"/>
			<path d="M112.61,85.65c0.27-1.29,0.63-3.06,0.75-3.66h0.54c-0.12,0.72-0.39,2.13-0.72,3.54c0.87-1.77,2.4-3.84,5.67-3.84
				c2.34,0,4.56,1.41,3.66,5.61l-2.04,9.63h-0.57l2.04-9.72c0.63-2.97-0.39-5.01-3.18-5.01c-3.72,0-5.55,3.3-6.3,6.84l-1.65,7.89
				h-0.57L112.61,85.65z"/>
			<path d="M149.99,83.91l-6.33,8.43c-2.25,3-3.72,4.89-6.84,4.89c-3.3,0-4.47-2.58-4.47-4.62c0-3.36,1.8-4.86,6-7.2
				c4.08-2.28,5.58-3.42,5.58-5.82c0-1.29-0.69-3.39-3.39-3.39c-2.46,0-3.84,1.95-3.84,4.53c0,1.65,0.63,2.82,1.98,4.68l8.85,11.52
				h-0.69l-8.61-11.28c-1.26-1.71-2.07-3-2.07-4.92c0-2.43,1.32-5.04,4.47-5.04c2.64,0,3.87,2.01,3.87,3.84
				c0,2.85-1.83,3.96-5.88,6.27c-4.2,2.31-5.73,3.78-5.73,6.72c0,1.95,1.2,4.2,3.96,4.2c2.22,0,3.69-0.96,6.54-4.8l5.97-8.01H149.99
				z"/>
			<path d="M158.9,91.35c-0.09,3.99,2.61,5.37,5.73,5.37c3.42,0,6.03-1.98,6.03-5.43c0-2.58-1.38-3.87-4.71-5.34
				c-3.21-1.41-4.56-2.49-4.56-4.83c0-3.12,2.1-5.43,5.82-5.43c3.96,0,5.49,2.43,5.52,5.1h-0.54c-0.12-3-1.95-4.59-5.1-4.59
				c-3.12,0-5.13,1.98-5.13,4.86c0,1.98,0.99,3.03,4.23,4.41c3.6,1.53,5.04,3.03,5.04,5.76c0,3.66-2.64,6-6.66,6
				c-4.2,0-6.3-2.13-6.24-5.88H158.9z"/>
			<path d="M184.94,92.97c-0.3,1.47-0.69,3.24-0.81,3.96h-0.54c0.03-0.3,0.36-1.98,0.72-3.48c-1.05,2.1-2.67,3.72-5.7,3.72
				c-2.01,0-4.44-0.96-3.51-5.4l2.07-9.78h0.57l-2.1,9.96c-0.51,2.31-0.03,4.71,3.06,4.71c2.76,0,5.25-1.74,6.21-6.24l1.77-8.43
				h0.57L184.94,92.97z"/>
			<path d="M192.23,81.99h0.57l-3.15,14.94h-0.57L192.23,81.99z M193.73,74.94h0.57l-0.54,2.55h-0.57L193.73,74.94z"/>
			<path d="M195.38,81.99h2.64l0.99-4.56h0.54l-0.96,4.56h3.45l-0.09,0.51h-3.48l-2.46,11.46c-0.33,1.47-0.18,2.67,1.5,2.67
				c0.39,0,1.08-0.06,1.74-0.3l-0.12,0.54c-0.45,0.21-1.32,0.3-1.68,0.3c-1.74,0-2.52-0.78-1.98-3.33l2.46-11.34h-2.67L195.38,81.99
				z"/>
			<path d="M202.82,89.1c-0.24,1.14-0.27,2.04-0.27,2.61c0,3.03,1.44,4.95,4.29,4.95c2.7,0,4.26-1.62,5.25-3.54h0.57
				c-1.23,2.88-3.45,4.05-5.94,4.05c-3.27,0-4.74-2.31-4.74-5.4c0-4.2,2.1-10.08,7.35-10.08c3.3,0,4.53,2.31,4.53,4.77
				c0,0.78-0.09,1.65-0.33,2.64H202.82z M213.08,88.59c0.15-0.78,0.21-1.35,0.21-2.1c0-2.4-1.2-4.29-4.05-4.29
				c-2.97,0-5.28,2.28-6.33,6.39H213.08z"/>
			<path d="M215.9,92.61c0.06,2.49,1.35,4.05,4.35,4.05c2.28,0,4.29-1.17,4.29-3.75c0-1.62-0.87-2.64-3.54-3.66
				c-3-1.14-3.75-2.22-3.75-3.75c0-2.01,1.53-3.81,4.47-3.81c3.33,0,4.38,2.19,4.35,4.02h-0.51c-0.06-1.47-0.78-3.51-3.96-3.51
				c-2.31,0-3.78,1.38-3.78,3.24c0,1.53,0.87,2.37,3.45,3.36c2.85,1.08,3.84,2.28,3.84,4.05c0,2.7-2.01,4.32-4.95,4.32
				c-2.88,0-4.83-1.44-4.8-4.56H215.9z"/>
		</g>
	</g>
	<g>
		<path class="st2" d="M-33.79,52.02h161.74H-33.79z"/>
		<path class="st3" d="M26.21,45.87v23.91c1.39-0.33,2.72-0.59,4-0.81v-23.1H26.21z"/>
		<path class="st3" d="M26.21,88.93h4V73.6c-1.28,0.17-2.61,0.37-4,0.62V88.93z"/>
		<path class="st3" d="M50.21,88.93h4V74.26c-1.4-0.26-2.74-0.47-4-0.64V88.93z"/>
		<path class="st3" d="M50.21,45.87v23.13c1.26,0.22,2.6,0.5,4,0.83V45.87H50.21z"/>
		<rect x="6.21" y="92.93" class="st3" width="68" height="4"/>
		<path class="st3" d="M38.21,72.96v15.97h4V72.95c-0.05,0-0.11,0-0.16-0.01C41,72.93,39.71,72.92,38.21,72.96z"/>
		<path class="st3" d="M38.21,16.93v51.2c1.49-0.05,2.79-0.05,3.84-0.02c0.05,0,0.11,0.01,0.16,0.01V16.93H38.21z"/>
		<polygon class="st3" points="40.21,3.07 38.21,16.93 42.21,16.93 		"/>
		<path class="st3" d="M14.21,28.93v44.95c1.36-0.62,2.69-1.17,4-1.66V28.93H14.21z"/>
		<path class="st3" d="M14.21,88.93h4V76.1c-1.31,0.38-2.64,0.8-4,1.28V88.93z"/>
		<polygon class="st3" points="16.21,15.07 14.21,28.93 18.21,28.93 		"/>
		<path class="st3" d="M62.21,88.93h4V77.46c-1.36-0.48-2.69-0.91-4-1.29V88.93z"/>
		<path class="st3" d="M62.21,28.93v43.37c1.31,0.5,2.64,1.06,4,1.68V28.93H62.21z"/>
		<polygon class="st3" points="64.21,15.07 62.21,28.93 66.21,28.93 		"/>
	</g>
</g>
</svg>
