<?xml version="1.0" encoding="utf-8"?>
<!-- Generator: Adobe Illustrator 26.0.0, SVG Export Plug-In . SVG Version: 6.00 Build 0)  -->
<svg version="1.1" id="Layer_1" xmlns="http://www.w3.org/2000/svg" xmlns:xlink="http://www.w3.org/1999/xlink" x="0px" y="0px"
	 viewBox="0 0 128 128" style="enable-background:new 0 0 128 128;" xml:space="preserve">
<style type="text/css">
	.st0{fill:none;}
	.st1{fill:#D1C32A;}
</style>
<g>
	<path class="st0" d="M-36,66.58h218.61H-36z"/>
	<path class="st1" d="M45.1,58.21v32.52c1.88-0.45,3.68-0.81,5.41-1.1V58.21H45.1z"/>
	<path class="st1" d="M45.1,116.79h5.41V95.94c-1.73,0.23-3.53,0.5-5.41,0.84V116.79z"/>
	<path class="st1" d="M77.54,116.79h5.41V96.84c-1.89-0.35-3.7-0.64-5.41-0.87V116.79z"/>
	<path class="st1" d="M77.54,58.21v31.46c1.71,0.3,3.52,0.68,5.41,1.13V58.21H77.54z"/>
	<rect x="18.06" y="122.23" class="st1" width="91.91" height="5.44"/>
	<path class="st1" d="M61.32,95.07v21.72h5.41V95.06c-0.07,0-0.15-0.01-0.21-0.01C65.08,95.02,63.33,95.02,61.32,95.07z"/>
	<path class="st1" d="M61.32,18.86v69.65c2.02-0.07,3.76-0.06,5.19-0.03c0.07,0,0.15,0.01,0.21,0.01V18.86H61.32z"/>
	<polygon class="st1" points="64.02,0 61.32,18.86 66.72,18.86 	"/>
	<path class="st1" d="M28.88,35.18v61.14c1.83-0.84,3.64-1.59,5.41-2.26V35.18H28.88z"/>
	<path class="st1" d="M28.88,116.79h5.41V99.34c-1.77,0.52-3.57,1.09-5.41,1.74V116.79z"/>
	<polygon class="st1" points="31.58,16.32 28.88,35.18 34.28,35.18 	"/>
	<path class="st1" d="M93.75,116.79h5.41v-15.61c-1.84-0.65-3.64-1.24-5.41-1.76V116.79z"/>
	<path class="st1" d="M93.75,35.18v59c1.76,0.68,3.57,1.44,5.41,2.29V35.18H93.75z"/>
	<polygon class="st1" points="96.46,16.32 93.75,35.18 99.16,35.18 	"/>
</g>
</svg>
