<?xml version="1.0" encoding="utf-8"?>
<!-- Generator: Adobe Illustrator 26.0.0, SVG Export Plug-In . SVG Version: 6.00 Build 0)  -->
<svg version="1.1" id="Layer_1" xmlns="http://www.w3.org/2000/svg" xmlns:xlink="http://www.w3.org/1999/xlink" x="0px" y="0px"
	 viewBox="0 0 400 100" style="enable-background:new 0 0 400 100;" xml:space="preserve">
<style type="text/css">
	.st0{font-family:'Butler';}
	.st1{font-size:82.4136px;}
	.st2{fill:none;}
	.st3{fill:#D1C32A;}
</style>
<text transform="matrix(0.9975 0 0 1 75.6929 62.7582)" class="st0 st1">TEMPLE</text>
<g>
	<g>
		<path d="M262.08,75.25l-4.41,20.81h-1.5l4.41-20.81H262.08z"/>
		<path d="M264.88,85.76c0.66-3.15,0.87-4.2,0.99-4.71h1.38c-0.09,0.54-0.3,1.67-0.51,2.62c0.84-1.4,2.19-2.87,4.85-2.87
			c2.53,0,4.53,1.69,3.66,5.76l-2.01,9.49h-1.47l1.98-9.42c0.48-2.3,0.12-4.47-2.47-4.47c-3.21,0-4.82,2.75-5.56,6.28l-1.59,7.61
			h-1.41L264.88,85.76z"/>
		<path d="M280.15,85.76c0.66-3.15,0.87-4.2,0.99-4.71h1.38c-0.09,0.54-0.3,1.67-0.51,2.62c0.84-1.4,2.19-2.87,4.85-2.87
			c2.53,0,4.53,1.69,3.66,5.76l-2.01,9.49h-1.47l1.98-9.42c0.48-2.3,0.12-4.47-2.47-4.47c-3.21,0-4.82,2.75-5.56,6.28l-1.59,7.61
			h-1.41L280.15,85.76z"/>
		<path d="M318.36,83.5l-5.7,7.73c-2.79,3.8-4.18,5.14-7.29,5.14c-3.24,0-4.85-2.39-4.85-5.05c0-3.38,2.3-5.13,6.07-7.02
			c3-1.5,5.2-2.42,5.2-5.16c0-1.25-0.71-2.86-2.86-2.86c-1.9,0-3.15,1.4-3.15,3.93c0,0.96,0.39,2.27,1.55,3.97l9.09,11.89h-1.75
			l-8.59-11.27c-1.02-1.44-1.77-2.85-1.77-4.64c0-2.7,1.71-5.17,4.82-5.17c2.6,0,4.1,1.87,4.1,4.09c0,3.23-2.15,4.32-5.83,6.24
			c-3.19,1.65-5.4,2.82-5.4,5.88c0,1.93,1.08,3.78,3.52,3.78c2.74,0,4.17-1.8,6.25-4.75l4.9-6.71H318.36z"/>
		<path d="M329.01,89.97c0.3,3.54,2.44,5,5.19,5c2.89,0,4.88-1.69,4.88-4.49c0-2.21-1.37-3.37-4.33-4.92
			c-3.11-1.62-4.55-2.74-4.55-5.38c0-3.1,2.25-5.24,5.84-5.24c4.24,0,5.93,2.73,5.84,5.77h-1.44c-0.09-3.03-1.87-4.47-4.56-4.47
			c-2.48,0-4.17,1.46-4.17,3.84c0,2.02,1.13,2.77,3.77,4.17c3.82,2.04,5.14,3.37,5.14,6.09c0,3.25-2.29,5.92-6.6,5.92
			c-4.69,0-6.23-2.82-6.5-6.3H329.01z"/>
		<path d="M354.27,91.94c-0.36,1.69-0.69,3.4-0.81,4.12h-1.38c0.06-0.39,0.27-1.79,0.47-2.71c-0.82,1.53-2.37,2.98-4.85,2.98
			c-2.03,0-4.44-1.02-3.51-5.41l2.1-9.87h1.41l-2.04,9.51c-0.51,2.5-0.26,4.41,2.35,4.41c2.38,0,4.43-1.61,5.36-5.84l1.74-8.08h1.46
			L354.27,91.94z"/>
		<path d="M361.17,81.05h1.41l-3.18,15.01h-1.41L361.17,81.05z M362.61,74.19h1.41l-0.6,2.9h-1.41L362.61,74.19z"/>
		<path d="M364.79,81.05h2.66l0.99-4.55h1.4l-0.99,4.55h3.32l-0.28,1.27h-3.32l-2.3,10.63c-0.3,1.4-0.03,2.03,1.29,2.03
			c0.89,0,1.49-0.21,1.76-0.27l-0.25,1.23c-0.55,0.24-1.39,0.33-1.88,0.33c-1.68,0-2.94-0.61-2.36-3.35l2.33-10.6h-2.66
			L364.79,81.05z"/>
		<path d="M373.44,88.72c-0.15,0.62-0.21,1.34-0.21,2.02c0,2.62,1.07,4.32,3.57,4.32c2.89,0,3.84-2.08,4.43-3.12h1.44
			c-0.58,1.33-1.97,4.42-6.08,4.42c-3.44,0-4.82-2.46-4.82-5.51c0-4.48,2.42-10.05,7.37-10.05c3.34,0,4.64,2.34,4.64,5.11
			c0,0.96-0.18,1.98-0.36,2.8H373.44z M382.2,87.46c0.09-0.51,0.15-0.87,0.15-1.46c0-2.44-1.1-3.9-3.45-3.9
			c-2.72,0-4.5,2.48-5.21,5.36H382.2z"/>
		<path d="M386.56,91.55c0.09,2.12,1.25,3.51,3.69,3.51c2.17,0,3.48-1.33,3.48-3.06c0-1.37-0.69-2.26-3.08-3.34
			c-2.38-1.08-3.58-1.84-3.58-3.88c0-2.12,1.51-3.98,4.56-3.98c3.38,0,4.47,2.22,4.47,4.42h-1.37c-0.09-1.73-0.81-3.15-3.3-3.15
			c-1.84,0-2.88,1.09-2.88,2.58c0,1.25,0.63,1.76,2.69,2.71c2.38,1.08,4,2.11,4,4.42c0,2.44-1.63,4.54-5.19,4.54
			c-3.22,0-4.94-1.89-4.88-4.78H386.56z"/>
	</g>
</g>
<g>
	<path class="st2" d="M-33.79,51.15h161.74H-33.79z"/>
	<path class="st3" d="M26.21,44.99V68.9c1.39-0.33,2.72-0.59,4-0.81v-23.1H26.21z"/>
	<path class="st3" d="M26.21,88.06h4V72.73c-1.28,0.17-2.61,0.37-4,0.62V88.06z"/>
	<path class="st3" d="M50.21,88.06h4V73.39c-1.4-0.26-2.74-0.47-4-0.64V88.06z"/>
	<path class="st3" d="M50.21,44.99v23.13c1.26,0.22,2.6,0.5,4,0.83V44.99H50.21z"/>
	<rect x="6.21" y="92.06" class="st3" width="68" height="4"/>
	<path class="st3" d="M38.21,72.09v15.97h4V72.08c-0.05,0-0.11,0-0.16-0.01C41,72.06,39.71,72.05,38.21,72.09z"/>
	<path class="st3" d="M38.21,16.06v51.2c1.49-0.05,2.79-0.05,3.84-0.02c0.05,0,0.11,0.01,0.16,0.01V16.06H38.21z"/>
	<polygon class="st3" points="40.21,2.2 38.21,16.06 42.21,16.06 	"/>
	<path class="st3" d="M14.21,28.06v44.95c1.36-0.62,2.69-1.17,4-1.66V28.06H14.21z"/>
	<path class="st3" d="M14.21,88.06h4V75.23c-1.31,0.38-2.64,0.8-4,1.28V88.06z"/>
	<polygon class="st3" points="16.21,14.2 14.21,28.06 18.21,28.06 	"/>
	<path class="st3" d="M62.21,88.06h4V76.59c-1.36-0.48-2.69-0.91-4-1.29V88.06z"/>
	<path class="st3" d="M62.21,28.06v43.37c1.31,0.5,2.64,1.06,4,1.68V28.06H62.21z"/>
	<polygon class="st3" points="64.21,14.2 62.21,28.06 66.21,28.06 	"/>
</g>
</svg>
